# xmcd
#
# Track frame offsets:
#	150
#	18193
#	33171
#	47028
#	60022
#	75464
#	89563
#	103211
#	114077
#	131678
#	143016
#	156870
#	178464
#	194514
#
# Disc length: 2865 seconds
# Revision: 0
# Processed by: cddbd v1.5.2PL0 Copyright (c) Steve Scherf et al.
# Submitted via: dBpowerAMP V12.0
#
DISCID=b10b2f0e
DTITLE=Hallur - Smile
DYEAR=2009
DGENRE=
TTITLE0=That's Me
TTITLE1=Gyltu Ljosakrunurnar
TTITLE2=Smile
TTITLE3=Why Should We Try Anymore
TTITLE4=My Sweetest Hello
TTITLE5=Walking The Floor Over You
TTITLE6=Run Away From The Pain
TTITLE7=Window Shopping
TTITLE8=I've Lost It
TTITLE9=I'll Be There
TTITLE10=Smil
TTITLE11=Til A Tear Becomes A Rose
TTITLE12=I Got Stripes
TTITLE13=My Sweet Lauraine
EXTD=
EXTT0=
EXTT1=
EXTT2=
EXTT3=
EXTT4=
EXTT5=
EXTT6=
EXTT7=
EXTT8=
EXTT9=
EXTT10=
EXTT11=
EXTT12=
EXTT13=
PLAYORDER=
